<svg display="none" xmlns="http://www.w3.org/2000/svg">

  <symbol viewBox="0 0 40 40" id="right-arrow72-icon" preserveAspectRatio="xMidYMid meet">
    <path d="M30.3281 24.375H7.5V20.625H30.3281L19.8281 10.125L22.5 7.5L37.5 22.5L22.5 37.5L19.8281 34.875L30.3281 24.375Z" fill="currentColor"/>
  </symbol>

  <symbol viewBox="0 0 24 20" id="burger-icon">
    <rect width="24" height="3.83721" fill="#aaaaaaa1" fill-opacity="0.5"/>
    <rect y="7.67444" width="24" height="3.83721" fill="#aaaaaaa1" fill-opacity="0.5"/>
    <rect y="15.3489" width="24" height="3.83721" fill="#aaaaaaa1" fill-opacity="0.5"/>
  </symbol>

  <symbol width="14" height="14" viewBox="0 0 14 14" id="close-icon" >
    <path d="M1.4 14L0 12.6L5.6 7L0 1.4L1.4 0L7 5.6L12.6 0L14 1.4L8.4 7L14 12.6L12.6 14L7 8.4L1.4 14Z" />
  </symbol>

  <symbol viewBox="0 0 30 30" id="instagram-icon">
    <path d="M14.8652 0C1.07948 0 0 1.07948 0 14.8652V15.1348C0 28.9205 1.07948 30 14.8652 30H15.1348C28.9205 30 30 28.9205 30 15.1348V15C30 1.089 28.911 0 15 0H14.8652ZM12 3H18C26.3467 3 27 3.65325 27 12V18C27 26.3467 26.3467 27 18 27H12C3.65325 27 3 26.3467 3 18V12C3 3.65325 3.65325 3 12 3ZM22.4956 6C21.6669 6.00225 20.9977 6.67564 21 7.50439C21.0023 8.33314 21.6756 9.00225 22.5044 9C23.3331 8.99775 24.0023 8.32436 24 7.49561C23.9977 6.66686 23.3244 5.99775 22.4956 6ZM14.9824 7.5C10.8409 7.50975 7.49025 10.8761 7.5 15.0176C7.50975 19.1591 10.8761 22.5098 15.0176 22.5C19.1591 22.4902 22.5098 19.1239 22.5 14.9824C22.4902 10.8409 19.1239 7.49025 14.9824 7.5ZM14.9897 10.5C17.4745 10.494 19.494 12.505 19.5 14.9897C19.5053 17.4745 17.495 19.494 15.0103 19.5C12.5255 19.506 10.506 17.4958 10.5 15.0103C10.494 12.5255 12.505 10.506 14.9897 10.5Z"/>
  </symbol>

  <symbol  viewBox="0 0 34 34" id="tg-icon">
    <path d="M17 0.5C26.1125 0.5 33.5 7.8875 33.5 17C33.5 26.1125 26.1125 33.5 17 33.5C7.8875 33.5 0.5 26.1125 0.5 17C0.5 7.8875 7.8875 0.5 17 0.5ZM22.6918 23.726C22.9948 22.7952 24.4175 13.5147 24.5923 11.6855C24.6455 11.132 24.47 10.7638 24.128 10.5988C23.7133 10.4 23.0997 10.499 22.3865 10.7562C21.4092 11.1087 8.918 16.412 8.1965 16.7195C7.5125 17.0105 6.86525 17.327 6.86525 17.7867C6.86525 18.11 7.05725 18.2915 7.58525 18.4797C8.13425 18.6755 9.518 19.0948 10.3362 19.3205C11.1237 19.538 12.0185 19.349 12.521 19.037C13.0527 18.7062 19.1967 14.5962 19.637 14.2355C20.0772 13.8755 20.429 14.3368 20.069 14.6975C19.709 15.0575 15.4925 19.1503 14.936 19.7173C14.2602 20.405 14.7395 21.1183 15.1932 21.404C15.71 21.7303 19.43 24.2247 19.9902 24.6252C20.5505 25.0257 21.1183 25.2073 21.6388 25.2073C22.1593 25.2065 22.433 24.521 22.6918 23.726Z"/>
  </symbol>

  <symbol viewBox="0 0 30 30" id="plus-icon">
    <path d="M15,3C8.373,3,3,8.373,3,15c0,6.627,5.373,12,12,12s12-5.373,12-12C27,8.373,21.627,3,15,3z M21,16h-5v5 c0,0.553-0.448,1-1,1s-1-0.447-1-1v-5H9c-0.552,0-1-0.447-1-1s0.448-1,1-1h5V9c0-0.553,0.448-1,1-1s1,0.447,1,1v5h5 c0.552,0,1,0.447,1,1S21.552,16,21,16z"></path>
  </symbol>

  <symbol viewBox="0 0 345 289" id="heart-icon">

    <path d="M93.1329 1.9255C138.333 1.5255 164.633 32.7588 172.133 48.4255C199.733 5.22552 240.3 -0.907758 257.133 1.4256C274.133 0.758935 313.533 10.2256 335.133 53.4256C356.733 96.6256 333.8 139.759 319.633 155.926C289.466 185.092 223.933 249.326 203.133 272.926C182.333 296.526 158.466 287.759 149.133 280.426C120.133 250.759 55.7329 185.126 30.1329 159.926C-1.86714 128.426 -2.36714 89.4256 4.63286 66.4256C11.6329 43.4256 36.6329 2.4255 93.1329 1.9255Z"  />
  </symbol>

  <symbol viewBox="0 0 50 50" id="tg-transparent-icon">
    <path d="M25 2C12.3093 2 2 12.3093 2 25C2 37.6907 12.3093 48 25 48C37.6907 48 48 37.6907 48 25C48 12.3093 37.6907 2 25 2ZM25 4C36.6098 4 46 13.3902 46 25C46 36.6098 36.6098 46 25 46C13.3902 46 4 36.6098 4 25C4 13.3902 13.3902 4 25 4ZM34.0879 14.0352C33.4039 14.0352 32.6353 14.1936 31.7363 14.5176C30.3403 15.0206 13.9207 21.9922 12.0527 22.7852C10.9847 23.2392 8.99609 24.0837 8.99609 26.0977C8.99609 27.4327 9.77836 28.3875 11.3184 28.9375C12.1464 29.2325 14.1129 29.8286 15.2539 30.1426C15.7379 30.2756 16.2523 30.3438 16.7812 30.3438C17.8162 30.3438 18.8578 30.0859 19.6738 29.6309C19.6668 29.7989 19.6714 29.9687 19.6914 30.1387C19.8144 31.1887 20.4619 32.1762 21.4219 32.7812C22.0499 33.1772 27.1793 36.6142 27.9453 37.1602C29.0213 37.9292 30.2108 38.3359 31.3828 38.3359C33.6228 38.3359 34.3743 36.0231 34.7363 34.9121C35.2613 33.2991 37.2272 20.1821 37.4492 17.8691C37.6002 16.2841 36.9396 14.979 35.6816 14.377C35.2106 14.15 34.6729 14.0352 34.0879 14.0352ZM34.0879 16.0352C34.3629 16.0352 34.6084 16.0806 34.8164 16.1816C35.2894 16.4086 35.53 16.9147 35.457 17.6797C35.215 20.2027 33.2539 33.009 32.8359 34.293C32.4779 35.391 32.1008 36.3359 31.3828 36.3359C30.6648 36.3359 29.8804 36.0842 29.1074 35.5312C28.3344 34.9793 23.2013 31.5369 22.4883 31.0879C21.8633 30.6939 21.2018 29.7117 22.1328 28.7617C22.8998 27.9797 28.7178 22.3329 29.2148 21.8359C29.5848 21.4649 29.4118 21.0176 29.0488 21.0176C28.9238 21.0176 28.7741 21.0703 28.6191 21.1973C28.0111 21.6943 19.5348 27.3663 18.8008 27.8223C18.3148 28.1243 17.5623 28.3418 16.7812 28.3418C16.4482 28.3418 16.1111 28.3019 15.7871 28.2129C14.6591 27.9019 12.7502 27.3227 11.9922 27.0527C11.2632 26.7927 10.998 26.5437 10.998 26.0977C10.998 25.4637 11.8929 25.026 12.8359 24.625C13.8319 24.202 31.0661 16.8834 32.4141 16.3984C33.0381 16.1724 33.6089 16.0352 34.0879 16.0352Z"/>
  </symbol>

  <symbol viewBox="0 0 46 46" id="wa-transparent-icon">
    <path d="M23 0C10.3095 0 0 10.3095 0 23C0 27.0791 1.11869 30.8859 2.98438 34.209L0.0371094 44.7305C-0.00997593 44.8988 -0.0121034 45.0766 0.0309391 45.246C0.0739816 45.4155 0.16069 45.5707 0.28242 45.6962C0.404149 45.8217 0.556646 45.913 0.724706 45.9612C0.892765 46.0094 1.07052 46.0127 1.24023 45.9707L12.2109 43.252C15.4346 44.9729 19.0926 46 23 46C35.6905 46 46 35.6905 46 23C46 10.3095 35.6905 0 23 0ZM23 2C34.6095 2 44 11.3905 44 23C44 34.6095 34.6095 44 23 44C19.278 44 15.7921 43.0296 12.7617 41.334C12.5401 41.2101 12.2796 41.1752 12.0332 41.2363L2.42578 43.6172L5.00195 34.4258C5.03882 34.2959 5.04899 34.1599 5.03188 34.0259C5.01476 33.892 4.97069 33.7629 4.90234 33.6465C3.06069 30.5236 2 26.8901 2 23C2 11.3905 11.3905 2 23 2ZM14.6426 11C14.0015 11 13.086 11.2385 12.334 12.0488C11.8823 12.5355 10 14.3695 10 17.5938C10 20.9553 12.3314 23.8558 12.6133 24.2285H12.6152V24.2305C12.5885 24.1953 12.973 24.7522 13.4863 25.4199C13.9996 26.0877 14.7174 26.9646 15.6191 27.9141C17.4226 29.8129 19.9583 32.0074 23.1055 33.3496C24.5548 33.9668 25.6982 34.3394 26.5645 34.6113C28.1698 35.1154 29.6321 35.0388 30.7305 34.877C31.5526 34.7559 32.4569 34.3611 33.3516 33.7949C34.2462 33.2287 35.1231 32.5247 35.5098 31.4551C35.7868 30.6882 35.9276 29.9796 35.9785 29.3965C36.004 29.1049 36.0072 28.8476 35.9883 28.6094C35.9693 28.3711 35.9896 28.1887 35.7676 27.8242C35.302 27.0598 34.7748 27.0399 34.2246 26.7676C33.9189 26.6163 33.0487 26.1913 32.1758 25.7754C31.3039 25.3599 30.5489 24.992 30.084 24.8262C29.7902 24.7205 29.4316 24.5684 28.9141 24.627C28.3966 24.6856 27.8855 25.0589 27.5879 25.5C27.3058 25.9181 26.1704 27.2583 25.8242 27.6523C25.8196 27.6495 25.8497 27.6634 25.7129 27.5957C25.2848 27.3838 24.7612 27.2037 23.9863 26.7949C23.2115 26.3862 22.2423 25.7826 21.1816 24.8477V24.8457C19.603 23.4559 18.4973 21.7111 18.1484 21.125C18.1719 21.097 18.1456 21.1309 18.1953 21.082L18.1973 21.0801C18.5538 20.7289 18.8697 20.3095 19.1367 20.002C19.5153 19.5659 19.6823 19.1814 19.8633 18.8223C20.224 18.1064 20.0231 17.3187 19.8145 16.9043V16.9023C19.8289 16.931 19.7016 16.6502 19.5645 16.3262C19.4269 16.0013 19.2517 15.58 19.0645 15.1309C18.69 14.2325 18.272 13.2249 18.0234 12.6348V12.6328C17.7306 11.9377 17.3344 11.4369 16.8164 11.1953C16.2984 10.9537 15.8408 11.0224 15.8223 11.0215H15.8203C15.4507 11.0044 15.045 11 14.6426 11ZM14.6426 13C15.0281 13 15.4082 13.0047 15.7266 13.0195C16.0541 13.0359 16.0337 13.0372 15.9707 13.0078C15.9067 12.978 15.9935 12.9683 16.1797 13.4102C16.4231 13.988 16.8432 14.9992 17.2188 15.9004C17.4065 16.351 17.5823 16.7738 17.7227 17.1055C17.863 17.4371 17.9391 17.6223 18.0273 17.7988V17.8008L18.0293 17.8027C18.1158 17.9735 18.1082 17.8642 18.0781 17.9238C17.8671 18.3427 17.8385 18.4455 17.625 18.6914C17.3 19.0658 16.9685 19.4834 16.793 19.6562C16.6394 19.8071 16.3624 20.042 16.1895 20.502C16.0162 20.9626 16.0971 21.5946 16.375 22.0664C16.745 22.6946 17.9644 24.6793 19.8594 26.3477C21.0528 27.3997 22.1646 28.0959 23.0527 28.5645C23.9409 29.033 24.6643 29.3066 24.8262 29.3867C25.2105 29.577 25.6307 29.7247 26.1191 29.666C26.6076 29.6074 27.0288 29.311 27.2969 29.0078L27.2988 29.0059C27.6556 28.6013 28.7158 27.3907 29.2246 26.6445C29.2462 26.6521 29.2391 26.6462 29.4082 26.707V26.709H29.4102C29.4874 26.7365 30.4543 27.1693 31.3164 27.5801C32.1785 27.9909 33.0536 28.4179 33.3379 28.5586C33.7482 28.7617 33.9421 28.8939 33.9922 28.8945C33.9956 28.9825 33.999 29.0779 33.9863 29.2227C33.9513 29.6243 33.8439 30.1802 33.6289 30.7754C33.5236 31.0667 32.975 31.6677 32.2832 32.1055C31.5914 32.5433 30.7493 32.8525 30.4375 32.8984C29.4999 33.0366 28.3867 33.087 27.1641 32.7031C26.3163 32.437 25.2593 32.0926 23.8906 31.5098C21.1148 30.326 18.7556 28.3115 17.0703 26.5371C16.2277 25.6499 15.5526 24.824 15.0723 24.1992C14.5929 23.5756 14.3835 23.2511 14.209 23.0215L14.207 23.0195C13.8972 22.6098 12 19.9709 12 17.5938C12 15.078 13.1685 14.0914 13.8008 13.4102C14.1327 13.0525 14.4956 13 14.6426 13Z" />

  </symbol>

  <symbol viewBox="0 0 50 50" id="instagram-transparent-icon">
    <path d="M16 3C8.83248 3 3 8.83248 3 16V34C3 41.1675 8.83248 47 16 47H34C41.1675 47 47 41.1675 47 34V16C47 8.83248 41.1675 3 34 3H16ZM16 5H34C40.0865 5 45 9.91352 45 16V34C45 40.0865 40.0865 45 34 45H16C9.91352 45 5 40.0865 5 34V16C5 9.91352 9.91352 5 16 5ZM37 11C36.4696 11 35.9609 11.2107 35.5858 11.5858C35.2107 11.9609 35 12.4696 35 13C35 13.5304 35.2107 14.0391 35.5858 14.4142C35.9609 14.7893 36.4696 15 37 15C37.5304 15 38.0391 14.7893 38.4142 14.4142C38.7893 14.0391 39 13.5304 39 13C39 12.4696 38.7893 11.9609 38.4142 11.5858C38.0391 11.2107 37.5304 11 37 11ZM25 14C18.9367 14 14 18.9367 14 25C14 31.0633 18.9367 36 25 36C31.0633 36 36 31.0633 36 25C36 18.9367 31.0633 14 25 14ZM25 16C29.9824 16 34 20.0176 34 25C34 29.9824 29.9824 34 25 34C20.0176 34 16 29.9824 16 25C16 20.0176 20.0176 16 25 16Z" />
  </symbol>

  <symbol width="20" height="20" viewBox="0 0 20 20" id="magnifier-icon">
    <path d="M7 0C3.14585 0 0 3.14585 0 7C0 10.8541 3.14585 14 7 14C8.748 14 10.345 13.348 11.5742 12.2812L12 12.707V14L18 20L20 18L14 12H12.707L12.2812 11.5742C13.348 10.345 14 8.748 14 7C14 3.14585 10.8541 0 7 0ZM7 2C9.77327 2 12 4.22673 12 7C12 9.77327 9.77327 12 7 12C4.22673 12 2 9.77327 2 7C2 4.22673 4.22673 2 7 2Z" fill="black"/>
  </symbol>

  <symbol viewBox="0 0 12 20" id="left-arrow-icon">
    <path d="M10 20L0 10L10 0L11.775 1.775L3.55 10L11.775 18.225L10 20Z" />
  </symbol>

  <symbol viewBox="0 0 12 20" id="right-arrow-icon">
    <path d="M1.80892 20L0 18.225L8.38217 10L0 1.775L1.80892 0L12 10L1.80892 20Z" />
  </symbol>

</svg>